<svg xmlns="http://www.w3.org/2000/svg" viewBox="0 0 512 512" role="img" aria-label="Torino Erasmus Haritası">
  <rect width="512" height="512" rx="112" fill="#0f172a"/>
  <path d="M96 354c52-94 98-141 138-141 27 0 47 17 64 35 16 18 31 35 51 35 22 0 45-20 67-59" fill="none" stroke="#38bdf8" stroke-width="34" stroke-linecap="round" stroke-linejoin="round"/>
  <path d="M148 390h264" stroke="#fff" stroke-width="28" stroke-linecap="round"/>
  <circle cx="179" cy="211" r="46" fill="#fff"/>
  <circle cx="179" cy="211" r="20" fill="#ef4444"/>
  <path d="M179 264c-34 0-62-28-62-62s28-62 62-62 62 28 62 62c0 47-62 112-62 112s-62-65-62-112" fill="none" stroke="#fff" stroke-width="22" stroke-linejoin="round"/>
</svg>
